<svg id="Layer_1" data-name="Layer 1" xmlns="http://www.w3.org/2000/svg" viewBox="0 0 56.65 11.21"><defs><style>.cls-1{fill:#ebebeb;}</style></defs><title>filmlist-logo</title><path class="cls-1" d="M12.47,2.82v8.4H9.71V2.82Z"/><path class="cls-1" d="M13.91,2.82h2.76V9H20v2.21H13.91Z"/><path class="cls-1" d="M23.44,7.21v4H20.75V2.82h2.79l1.92,4.05,1.92-4.05h2.79v8.4H27.49v-4L26.32,9.69h-1.7Z"/><path class="cls-1" d="M31.58,2.82h2.76V9h3.3v2.21H31.58Z"/><path class="cls-1" d="M41.22,2.82v8.4H38.47V2.82Z"/><path class="cls-1" d="M46.64,5.19a.82.82,0,0,0-.8-.61c-.37,0-.58.18-.58.4s.08.5,1.12.82c1.77.53,2.82,1.21,2.82,2.75s-1.28,2.67-3.51,2.67a4.44,4.44,0,0,1-3.38-1.82l1-1.12a3.49,3.49,0,0,0,2.3.9c.52,0,.77-.19.77-.47s-.24-.5-1.49-.89C43,7.24,42.49,6.33,42.49,5c0-1.49,1.12-2.52,3.21-2.52a3.16,3.16,0,0,1,3.48,2.65Z"/><path class="cls-1" d="M51.66,5H49.43V2.82h7.22V5H54.42v6.19H51.66Z"/><polygon class="cls-1" points="2.82 2.82 2.82 5.64 0 5.64 0 8.4 2.82 8.4 2.82 11.21 5.58 11.21 5.58 8.4 8.4 8.4 8.4 5.64 5.58 5.64 5.58 2.82 2.82 2.82"/><rect class="cls-1" x="5.58" width="2.82" height="2.82"/></svg>