<svg id="Layer_1" data-name="Layer 1" xmlns="http://www.w3.org/2000/svg" viewBox="0 0 139.27 164.91"><defs><style>.cls-1{fill:#e7ebeb;}</style></defs><title>logo-white-transparent</title><path class="cls-1" d="M62.76,10.36l-.1,0A37.31,37.31,0,0,0,40.11,22.47c-1,.87-1.87,1.78-2.74,2.74S35.5,27,34.63,28a37.28,37.28,0,0,0-2.74,2.74,37.28,37.28,0,0,0-2.74,2.74A40.14,40.14,0,0,0,16,66a36.45,36.45,0,0,0,2.4,10.79C23.9,90.53,36.28,95.89,40,97.32l11.16,3.87,2.64,1L51.31,109l-.11,0-30.28,4.1c-2.1.28-19.42,17.78-19.53,20.3L0,164.91l62.69-8.49,13.12-1.78.8-.1h0a37.35,37.35,0,0,0,21.73-12,37.41,37.41,0,0,0,2.75-2.74c1-.87,1.87-1.78,2.74-2.74s1.87-1.78,2.74-2.74,1.87-1.79,2.74-2.74a40.15,40.15,0,0,0,13.12-32.55c-1.08-14.84-10.4-26.51-23-30.78L87.4,63.68l-2.48-1L87.34,56l31.81-4.31c2-.27,19.08-17.52,19.16-20l1-31.75ZM96.47,76l.12,0,.12,0A26.09,26.09,0,0,1,109.06,85a28.3,28.3,0,0,1,5.61,15.13,31.28,31.28,0,0,1-6.48,21.35,29.39,29.39,0,0,1-18.59,11.3l-.72.1-13.07,1.77L21.9,141.94l.92-21,29-3.92,32.61-4.42a9.48,9.48,0,0,0,7.93-8.09A8.58,8.58,0,0,0,87,95L74.9,90.55l1.19-3.29,5.46-15.1.6-1.67,2.24.86Zm34.1-45.79-30.19,4.08-31.73,4.3a9.47,9.47,0,0,0-7.9,8A8.57,8.57,0,0,0,66,56.06l11.59,4.42L76.3,63.94,70.84,79.07l-.59,1.63-2.46-.92-.08,0-.07,0-11-3.82a34.17,34.17,0,0,1-8.22-4.62,27.3,27.3,0,0,1-9-11.71,28.52,28.52,0,0,1-1.86-8.38c-1.16-16,10.38-30.66,25.74-32.75h.1l67.86-9.19Z"/></svg>